<?xml version="1.0" encoding="iso-8859-1"?>
<!-- Generator: Adobe Illustrator 19.0.0, SVG Export Plug-In . SVG Version: 6.00 Build 0)  -->
<svg version="1.1" id="Capa_1" xmlns="http://www.w3.org/2000/svg" xmlns:xlink="http://www.w3.org/1999/xlink" x="0px" y="0px"
	 viewBox="0 0 512 512" style="enable-background:new 0 0 512 512;" xml:space="preserve">
<circle style="fill:#00C3FF;" cx="355.1" cy="57.806" r="57.806"/>
<path style="fill:#00AAF0;" d="M371.613,99.097c-31.925,0-57.806-25.881-57.806-57.806c0-11.737,3.521-22.642,9.531-31.759
	c-15.682,10.338-26.047,28.087-26.047,48.275c0,31.925,25.881,57.806,57.806,57.806c20.189,0,37.937-10.365,48.275-26.047
	C394.255,95.576,383.35,99.097,371.613,99.097z"/>
<path style="fill:#EBC9A0;" d="M165.161,148.645h-16.516c-4.561,0-8.258,3.697-8.258,8.258v74.323h33.032v-74.323
	C173.419,152.342,169.722,148.645,165.161,148.645z"/>
<path style="fill:#D7B48C;" d="M156.903,198.194v-49.548h-8.258c-4.561,0-8.258,3.697-8.258,8.258v74.323h33.032v-24.774h-8.258
	C160.6,206.452,156.903,202.754,156.903,198.194z"/>
<path style="fill:#EBC9A0;" d="M363.355,148.645h-16.516c-4.561,0-8.258,3.697-8.258,8.258v74.323h33.032v-74.323
	C371.613,152.342,367.916,148.645,363.355,148.645z"/>
<path style="fill:#D7B48C;" d="M355.097,198.194v-49.548h-8.258c-4.561,0-8.258,3.697-8.258,8.258v74.323h33.032v-24.774h-8.258
	C358.794,206.452,355.097,202.754,355.097,198.194z"/>
<path style="fill:#DBD9DC;" d="M275.419,365.268l43.037-64.569c2.353-3.53,3.608-7.677,3.608-11.919v-57.555
	c0-4.561,3.697-8.258,8.258-8.258h49.548c4.561,0,8.258,3.697,8.258,8.258v49.047c0,22.831-6.757,45.151-19.419,64.149
	l-38.33,57.507c-5.422,8.135-8.316,17.693-8.316,27.469v74.344c0,4.561-3.697,8.258-8.258,8.258h-49.548
	c-4.561,0-8.258-3.697-8.258-8.258V429.42v-0.002C256,406.587,262.757,384.266,275.419,365.268z"/>
<path style="fill:#5D5360;" d="M236.581,365.268l-43.037-64.569c-2.353-3.53-3.608-7.677-3.608-11.919v-57.555
	c0-4.561-3.697-8.258-8.258-8.258H132.13c-4.561,0-8.258,3.697-8.258,8.258v49.047c0,22.831,6.757,45.151,19.419,64.149
	l38.33,57.507c5.422,8.135,8.316,17.693,8.316,27.469v74.344c0,4.561,3.697,8.258,8.258,8.258h49.548
	c4.561,0,8.258-3.697,8.258-8.258V429.42v-0.002C256,406.587,249.243,384.266,236.581,365.268z"/>
<circle style="fill:#E6646E;" cx="156.9" cy="57.806" r="57.806"/>
<g>
	<path style="fill:#FFFFFF;" d="M181.677,49.548h-16.516V33.032c0-4.56-3.694-8.258-8.258-8.258s-8.258,3.698-8.258,8.258v16.516
		h-16.516c-4.565,0-8.258,3.698-8.258,8.258s3.694,8.258,8.258,8.258h16.516V82.58c0,4.56,3.694,8.258,8.258,8.258
		s8.258-3.698,8.258-8.258V66.065h16.516c4.565,0,8.258-3.698,8.258-8.258S186.242,49.548,181.677,49.548z"/>
	<path style="fill:#FFFFFF;" d="M379.871,66.065h-49.548c-4.565,0-8.258-3.698-8.258-8.258s3.694-8.258,8.258-8.258h49.548
		c4.565,0,8.258,3.698,8.258,8.258S384.435,66.065,379.871,66.065z"/>
</g>
<path style="fill:#4B3F4E;" d="M198.194,512h16.516v-82.603c0-14.715-4.314-28.965-12.475-41.209l-38.33-57.506
	c-9.983-14.978-15.26-32.41-15.26-50.409v-57.305h-16.516c-4.561,0-8.258,3.697-8.258,8.258v49.047
	c0,22.831,6.757,45.151,19.419,64.149l38.33,57.507c5.422,8.135,8.316,17.693,8.316,27.469v74.345
	C189.935,508.302,193.633,512,198.194,512z"/>
<path style="fill:#C9C6CA;" d="M264.258,512h16.516v-82.582c0-18,5.277-35.431,15.26-50.409l43.038-64.571
	c5.081-7.624,7.766-16.496,7.766-25.657v-65.813h-16.516c-4.561,0-8.258,3.697-8.258,8.258v57.555c0,4.242-1.256,8.389-3.608,11.918
	l-43.037,64.569C262.757,384.266,256,406.587,256,429.418v0.002v74.322C256,508.302,259.697,512,264.258,512z"/>
<path style="fill:#DC4655;" d="M173.419,99.097c-31.925,0-57.806-25.881-57.806-57.806c0-11.737,3.521-22.642,9.531-31.759
	C109.462,19.87,99.097,37.619,99.097,57.807c0,31.925,25.881,57.806,57.806,57.806c20.189,0,37.937-10.365,48.275-26.047
	C196.061,95.576,185.156,99.097,173.419,99.097z"/>
<g>
</g>
<g>
</g>
<g>
</g>
<g>
</g>
<g>
</g>
<g>
</g>
<g>
</g>
<g>
</g>
<g>
</g>
<g>
</g>
<g>
</g>
<g>
</g>
<g>
</g>
<g>
</g>
<g>
</g>
</svg>
