<svg id="icons" enable-background="new 0 0 64 64" height="512" viewBox="0 0 64 64" width="512" xmlns="http://www.w3.org/2000/svg"><path d="m.999 3.494h62c.553 0 1-.447 1-1s-.447-1-1-1h-62c-.553 0-1 .447-1 1s.447 1 1 1z"/><path d="m38.035 11.681c.013.068.026.134.053.198.01.021.008.045.019.066.028.057.068.104.105.152.016.021.026.042.043.062.079.089.172.159.274.214.009.006.015.015.024.02l3 1.5c.002.001.003 0 .005.001.112.056.236.075.361.085.026.003.053.02.08.02h.001.001c.004 0 .008-.002.012-.002.095-.001.188-.017.277-.044.029-.009.057-.025.085-.037.066-.026.13-.059.189-.1.012-.008.024-.01.036-.019l1.732-1.303h6.643v1c0 .553.447 1 1 1h9.006c1.654 0 3-1.346 3-3s-1.346-3-3-3h-9.007c-.553 0-1 .447-1 1v1h-6.643l-1.731-1.297c-.041-.031-.09-.04-.134-.063-.062-.033-.12-.069-.187-.089s-.133-.021-.2-.026c-.06-.005-.118-.015-.179-.009-.073.008-.14.033-.21.057-.045.016-.093.016-.137.037l-3 1.5c-.037.019-.06.051-.093.072-.057.037-.109.075-.158.123-.05.05-.088.104-.126.161-.021.033-.053.055-.07.091-.011.021-.009.045-.019.066-.026.064-.04.13-.053.198-.012.062-.024.121-.024.183s.013.121.025.183zm22.947.813h-8.006v-.993c0-.002.001-.004.001-.007s-.001-.005-.001-.007l-.001-.993h8.007c.552 0 1 .448 1 1s-.448 1-1 1zm-19.086-1.326.438.328-.439.331-.658-.329z"/><path d="m63.001 34.5h-10c-.553 0-1 .447-1 1v4.004c0 .009.005.017.005.025.013 2.938 2.149 5.379 4.949 5.875-.461 6.199-5.641 11.104-11.955 11.104-1.771 0-3.449-.396-4.965-1.088 2.291-2.062 3.694-4.927 3.932-8.014 2.291-.451 4.025-2.47 4.03-4.891 0-.004.002-.006.002-.01v-3.002c0-.553-.447-1-1-1h-7.998c-.553 0-1 .447-1 1v3.002c0 .011.006.019.006.029.014 2.388 1.709 4.383 3.961 4.858-.25 2.746-1.621 5.261-3.798 6.969-3.115-2.166-5.163-5.764-5.17-9.835 0-.007.001-.013.001-.02 0-.031-.015-.057-.018-.087v-19c3.947-.487 7.016-3.855 7.016-7.933 0-.553-.447-1-1-1h-3v-9.992h27c.553 0 1-.447 1-1s-.447-1-1-1h-27.99c-.004 0-.007-.002-.01-.002s-.006.002-.01.002h-5.983c-.004 0-.006-.002-.01-.002s-.006.002-.01.002h-27.987c-.553 0-1 .447-1 1s.447 1 1 1h27.001v9.994h-3.001c-.553 0-1 .447-1 1 0 4.066 3.052 7.427 6.984 7.928v19.092c0 .024.013.045.014.069-.023 4.051-2.064 7.628-5.167 9.785-2.177-1.708-3.548-4.223-3.798-6.969 2.252-.476 3.947-2.471 3.961-4.858 0-.011.006-.019.006-.029v-3.002c0-.553-.447-1-1-1h-7.998c-.553 0-1 .447-1 1v3.002c0 .004.002.006.002.01.005 2.421 1.739 4.439 4.03 4.891.237 3.087 1.641 5.952 3.932 8.014-1.516.692-3.193 1.088-4.965 1.088-6.314 0-11.494-4.905-11.955-11.104 2.8-.496 4.937-2.937 4.949-5.875 0-.009.005-.017.005-.025v-4.005c0-.553-.447-1-1-1h-10c-.553 0-1 .447-1 1v4.004c0 .005.003.009.003.013.006 2.977 2.193 5.444 5.043 5.902.474 7.295 6.543 13.089 13.955 13.089h8.101c.465 2.278 2.484 3.998 4.898 3.998s4.434-1.72 4.898-3.998h8.103c7.412 0 13.481-5.794 13.955-13.089 2.85-.458 5.037-2.926 5.043-5.902 0-.004.003-.008.003-.013v-4.004c0-.553-.447-1-1-1zm-22.997 8.006c0-.005-.003-.01-.003-.015v-1.987h5.998v1.997c0 .002-.001.003-.001.005 0 1.626-1.303 2.946-2.918 2.99-.02-.001-.036-.012-.057-.012-.025 0-.047.013-.072.015-1.629-.027-2.947-1.356-2.947-2.993zm-22.002 0c0-.002-.001-.003-.001-.005v-1.997h5.998v1.987c0 .005-.003.01-.003.015 0 1.637-1.318 2.966-2.947 2.993-.025-.002-.047-.015-.072-.015-.021 0-.037.011-.057.012-1.615-.044-2.918-1.364-2.918-2.99zm-16.001-3.002c0-.004-.002-.006-.002-.01v-2.994h8v2.984c0 .007-.004.013-.004.02 0 2.204-1.793 3.998-3.997 3.998s-3.997-1.794-3.997-3.998zm30.999-23.016v-7.136c.355-.093.689-.233.999-.414v7.551h-.999zm-1.003-8.994c-.737 0-1.375-.405-1.722-1h3.444c-.347.595-.985 1-1.722 1zm-1.997 1.445c.311.181.645.321 1 .414v7.135h-1zm-3.91 9.549h2.852c.02.001.037.012.058.012s.038-.011.059-.012h2.883c.02.001.037.012.058.012s.038-.011.059-.012h2.883c.02.001.037.012.058.012s.038-.011.058-.012h2.852c-.478 2.833-2.942 5-5.909 5s-5.434-2.167-5.911-5zm5.91 31.189c1.101 2.758 3.053 5.081 5.532 6.652.084.077.179.135.28.179h-1.804c-.004 0-.007-.002-.01-.002s-.006.002-.01.002h-7.98c-.004 0-.007-.002-.01-.002s-.006.002-.01.002h-1.802c.102-.044.196-.102.28-.179 2.481-1.571 4.433-3.894 5.534-6.652zm-.001 10.829c-1.301 0-2.4-.838-2.815-1.998h5.631c-.416 1.16-1.515 1.998-2.816 1.998zm26.003-17.004c-2.204 0-3.997-1.794-3.997-3.998 0-.007-.004-.013-.004-.02v-2.984h8v2.994c0 .004-.002.006-.002.01 0 2.204-1.793 3.998-3.997 3.998z"/></svg>