<svg id="icons" enable-background="new 0 0 64 64" height="512" viewBox="0 0 64 64" width="512" xmlns="http://www.w3.org/2000/svg"><path d="m32 18.5c-.553 0-1-.447-1-1v-9.006c0-.553.447-1 1-1s1 .447 1 1v9.006c0 .553-.447 1-1 1z" fill="#aab2bd"/><path d="m34.999 18.5c-.553 0-1-.447-1-1v-12.006c0-.553.447-1 1-1s1 .447 1 1v12.006c0 .553-.447 1-1 1z" fill="#5d9cec"/><path d="m29 18.5c-.553 0-1-.447-1-1v-12.006c0-.553.447-1 1-1s1 .447 1 1v12.006c0 .553-.447 1-1 1z" fill="#ed5565"/><path d="m28.989 5.495h-27.989v-3h62v3h-28-6z" fill="#e6e9ed"/><path d="m29 5.495h6c-.011 1.649-1.351 2.99-3 3h-.011c-1.6 0-2.91-1.26-2.989-2.851z" fill="#ccd1d9"/><path d="m52.979 12.494h-7.977c-.553 0-1-.447-1-1s.447-1 1-1h7.977c.553 0 1 .447 1 1s-.448 1-1 1z" fill="#ccd1d9"/><path d="m45.976 11.681c.012-.061.009-.121.009-.184 0-.066.003-.13-.01-.194-.012-.059-.036-.111-.059-.168-.026-.066-.051-.13-.091-.19-.011-.016-.013-.035-.024-.051-.029-.039-.071-.06-.104-.093-.034-.034-.056-.077-.096-.107l-2-1.496c-.041-.031-.09-.04-.134-.063-.062-.033-.12-.069-.187-.089s-.133-.021-.2-.026c-.061-.005-.118-.015-.179-.009-.073.008-.14.033-.21.057-.045.016-.093.016-.137.037l-3 1.5c-.037.019-.06.051-.093.072-.057.037-.109.075-.158.123-.05.05-.088.104-.126.161-.021.033-.053.055-.07.091-.011.021-.009.045-.019.066-.026.064-.04.13-.053.198-.012.062-.024.121-.024.183s.013.121.024.183c.013.068.026.134.053.198.01.021.008.045.019.066.028.057.068.104.105.152.016.021.026.042.043.062.079.089.172.159.274.214.009.006.015.015.024.02l3 1.5c.002.001.003 0 .005.001.112.056.236.075.361.085.026.003.053.02.08.02h.001.001c.004 0 .008-.002.012-.002.095-.001.188-.017.277-.044.029-.009.057-.025.085-.037.066-.026.13-.059.189-.1.012-.008.024-.01.036-.019l2-1.504c.049-.036.076-.088.116-.131.025-.026.062-.039.084-.069.012-.017.014-.036.025-.053.038-.058.062-.119.087-.183.026-.06.052-.116.064-.177z" fill="#e6e9ed"/><path d="m60.982 8.494h-8.006c-.553 0-1 .447-1 1l.001 4c0 .553.447 1 1 1h8.005c1.654 0 3-1.346 3-3s-1.345-3-3-3z" fill="#656d78"/><path d="m25.791 56.591c-.194 0-.391-.057-.563-.174-3.289-2.245-5.252-5.96-5.252-9.938 0-.553.447-1 1-1s1 .447 1 1c0 3.316 1.637 6.414 4.379 8.285.456.312.574.934.263 1.39-.194.284-.508.437-.827.437z" fill="#ccd1d9"/><path d="m38.209 56.591c-.319 0-.633-.152-.827-.437-.312-.456-.193-1.078.263-1.39 2.742-1.871 4.379-4.969 4.379-8.285 0-.553.447-1 1-1s1 .447 1 1c0 3.978-1.963 7.692-5.252 9.938-.172.117-.369.174-.563.174z" fill="#ccd1d9"/><path d="m28 57.505h8c0 2.209-1.79 4-4 4s-4-1.791-4-4z" fill="#ccd1d9"/><g fill="#e6e9ed"><path d="m38.22 55.585c1.97 1.219 4.29 1.92 6.78 1.92h-9-8-9c2.489 0 4.81-.701 6.779-1.92 3.731-2.272 6.221-6.391 6.221-11.08 0 4.689 2.489 8.808 6.22 11.08z"/><path d="m19 58.503c-7.72 0-14.001-6.28-14.001-14 0-.553.447-1 1-1s1 .447 1 1c0 6.617 5.384 12 12.001 12s12.001-5.383 12.001-12c0-.553.447-1 1-1s1 .447 1 1c0 7.72-6.281 14-14.001 14z"/><path d="m31.983 45.503c-.553 0-1-.447-1-1v-25.022c0-.553.447-1 1-1s1 .447 1 1v25.021c0 .554-.447 1.001-1 1.001z"/></g><path d="m25.999 39.499c0-.553-.447-1-1-1h-7.998c-.553 0-1 .447-1 1v3.002c0 .004.002.006.002.01.005 2.751 2.243 4.988 4.996 4.988 2.746 0 4.978-2.227 4.994-4.969 0-.011.006-.019.006-.029z" fill="#ffce54"/><path d="m10.999 34.495h-10c-.553 0-1 .447-1 1v4.004c0 .005.003.009.003.013.007 3.302 2.693 5.985 5.996 5.985 3.298 0 5.981-2.677 5.996-5.973 0-.009.005-.017.005-.025v-4.004c0-.553-.447-1-1-1z" fill="#ffce54"/><path d="m45 58.503c-7.72 0-14.001-6.28-14.001-14 0-.553.447-1 1-1s1 .447 1 1c0 6.617 5.384 12 12.001 12s12.001-5.383 12.001-12c0-.553.447-1 1-1s1 .447 1 1c0 7.72-6.281 14-14.001 14z" fill="#e6e9ed"/><path d="m64.001 35.495c0-.553-.447-1-1-1h-10c-.553 0-1 .447-1 1v4.004c0 .009.005.017.005.025.015 3.296 2.698 5.973 5.996 5.973 3.303 0 5.989-2.684 5.996-5.985 0-.004.003-.008.003-.013z" fill="#ffce54"/><path d="m46.999 38.499h-7.998c-.553 0-1 .447-1 1v3.002c0 .011.006.019.006.029.017 2.742 2.248 4.969 4.994 4.969 2.753 0 4.991-2.237 4.996-4.988 0-.004.002-.006.002-.01v-3.002c0-.553-.447-1-1-1z" fill="#ffce54"/><path d="m45 58.503h-26c-.553 0-1-.447-1-1s.447-1 1-1h26c.553 0 1 .447 1 1s-.447 1-1 1z" fill="#e6e9ed"/><path d="m35 17.485h4c0 3.869-3.141 7-7 7-.011 0-.011 0-.021 0-3.86-.011-6.979-3.141-6.979-7h4 3z" fill="#656d78"/></svg>